<svg xmlns="http://www.w3.org/2000/svg" width="416" height="416" viewBox="0 0 416 416">
  <defs>
    <filter id="grain" x="0" y="0" width="100%" height="100%">
      <feTurbulence type="fractalNoise" baseFrequency=".82" numOctaves="3" seed="29" stitchTiles="stitch"/>
      <feColorMatrix type="matrix" values="0 0 0 0 .30 0 0 0 0 .22 0 0 0 0 .13 0 0 0 .065 0"/>
    </filter>
  </defs>
  <path d="M0 16H416M0 48H416M0 80H416M0 112H416M0 144H416M0 176H416M0 208H416M0 240H416M0 272H416M0 304H416M0 336H416M0 368H416M0 400H416" fill="none" stroke="#b0a083" stroke-opacity=".13" stroke-width=".7"/>
  <path d="M0 0H416V416H0Z" filter="url(#grain)"/>
  <g fill="none" stroke="#806b4c" stroke-linecap="round">
    <path stroke-opacity=".09" stroke-width=".55" d="m18 31 2.7-.8m59 6 1.5 1.4m34-16 4-.5m49 22 2.4-1.2m81-13 3.3.9m86-7 1 1.7m39 25 3-1m-329 49 3.7.5m22-12 1.2-1.1m80 14 4.5-.6m53-24 1.9.7m45 14 3.1-.4m53-12 2.4 1.6m59-2 4.3-.8m-354 56 2.1.8m29 17 4.2-1.5m51-26 2.3.4m72 9 1.4 1.8m29-15 4.7-.2m57 24 3-1m40-10 1.5 1.4m48 4 3.4-.9m-368 61 2.9-.7m34-13 1.5 1m69 15 4.6.5m51-20 2.7-.9m61 12 1.2 1.8m38-18 3.7.3m60 24 2-1.7m42-10 4.1-.1m-366 59 3.7.3m42-10 1.6-1.4m69 18 2.5-.4m32-24 4.8.8m78 18 2-1.1m41-4 3.6.7m37-17 1.7-.4m53 17 2.3 1.5m-373 48 4.2-.2m58 23 1.8-.9m51-18 3.1.7m54-6 1.2 1.4m35 22 4.8-.9m52-19 2.2.4m60 2 3.6-1.3m39 17 2.2-.5m-379 48 2.6 1.1m60-18 3.8-.4m33 17 1.4-1.2m61-6 4.1.9m57 15 2.4-.5m33-23 2.5 1.5m67 7 3.9-.6m30 14 1.8.3m-372 46 3.4-.7m50-13 2.1.4m47 17 4.7-.9m60-10 2.5 1.2m49-7 3.3-.4m47 16 1.8-1.7m50-10 4.1.5m38-5 2.9-.8"/>
    <path stroke-opacity=".075" stroke-width=".8" d="m38 17 1.2.3m143 11 .9-.2m103 15 .6.8m116-29 1.2.2M27 103l1-.3m65-35 .7.5m102 41 1.4-.4m130-20 .8.1M12 143l.9.7m76-8 1.1-.1m158 17 .6-.5m124-31 .9.4M31 212l1.2-.2m107-47 .7.3m135 43 1.5-.4m103-40 .7.6M70 250l.8-.5m128-36 .9.2m134 41 1.3-.5m59-24 .7.4M18 279l.9.2m80 36 1.4-.4m135-49 .7.6m135 44 .8-.1M42 350l1.2-.2m135-35 .7.5m103 35 .8-.6m111-27 .9.3M17 409l1.1-.3m96-33 .8.5m131 20 1.4-.6m110-17 .8.2"/>
    <path stroke="#fff9eb" stroke-opacity=".42" stroke-width=".65" d="m13 59 5.1-.5m43-43 3.3.8m59 44 4.8-1.5m29-23 2.7.4m66 17 5.9-.6m79-43 4.2 1.4m34 48 3.5-.5m33-20 4.9.6M9 123l4.6-.7m73 35 4.2.9m47-34 2.3-.6m69 15 5.1.4m45-38 3.7-.8m44 54 4.8.5m62-21 3.1-.6m25-28 4.2 1.1M43 184l3.8-.8m56 32 5.6.3m80-46 2.4.9m34 36 4.6-.4m64-15 3.8.6m45 24 5.1-.6m44-29 2.5.4M8 245l3.7.7m79 31 4.8-.8m46-30 3.4.5m36 17 5.8-.4m73-23 3.2 1.1m48 27 4.4-.8m62-26 2.7.5m29 25 5.4-.4M27 324l3.8-.6m50-34 5.2.8m64 38 4.6-.5m63-38 2.5.4m53 37 5.1-1m48-23 3.3.5m65 32 4.7-.4M14 380l4.3-.6m60 16 3.5.8m65-38 4.7-.4m46 42 3.1-.7m62-21 5.6.8m41 28 3.6-.4m64-45 4.8.6m28 32 2.7-.6"/>
  </g>
  <g fill="#6f583c" opacity=".09">
    <path d="m22 22 1.1.2-.3.6-1-.2zm179 33 1.3-.3.4.6-1.2.4zm163 20 .6.8-.5.5-.8-.5zM51 116l1.5-.3.1.5-1.3.4zm113 33 1-.1.3.7-1.1.1zm126-34 .8.5-.4.6-.8-.4zM14 202l1.3-.2.3.6-1 .3zm176-20 1.2.2-.2.6-1.4-.1zm205 43 1.1-.4.3.6-.8.5zM44 267l1.1.4-.4.5-1.1-.3zm179-19 .9-.2.4.8-.9.1zm95 43 1.5-.3.2.5-1.2.6zM11 351l.9.2-.2.7-1-.4zm126-53 1.3-.2.2.7-1.1.2zm228 47 1.2.3-.3.6-1.1-.2zM51 404l1.4-.4.1.6-1.3.3zm154-33 1 .3-.4.7-.8-.2zm83 31 1.2-.4.4.7-1 .3z"/>
  </g>
</svg>
